0
SECTION
2
ENTITIES
0
LINE
8
BAT_RAIL
10
0.000
20
0.000
30
0.000
11
32.000
21
0.000
31
0.000
0
LINE
8
BAT_RAIL
10
32.000
20
0.000
30
0.000
11
32.000
21
4.000
31
0.000
0
LINE
8
BAT_RAIL
10
32.000
20
4.000
30
0.000
11
0.000
21
4.000
31
0.000
0
LINE
8
BAT_RAIL
10
0.000
20
4.000
30
0.000
11
0.000
21
0.000
31
0.000
0
LINE
8
BAT_RAIL
10
0.000
20
7.000
30
0.000
11
32.000
21
7.000
31
0.000
0
LINE
8
BAT_RAIL
10
32.000
20
7.000
30
0.000
11
32.000
21
11.000
31
0.000
0
LINE
8
BAT_RAIL
10
32.000
20
11.000
30
0.000
11
0.000
21
11.000
31
0.000
0
LINE
8
BAT_RAIL
10
0.000
20
11.000
30
0.000
11
0.000
21
7.000
31
0.000
0
LINE
8
BAT_RAIL
10
0.000
20
14.000
30
0.000
11
32.000
21
14.000
31
0.000
0
LINE
8
BAT_RAIL
10
32.000
20
14.000
30
0.000
11
32.000
21
18.000
31
0.000
0
LINE
8
BAT_RAIL
10
32.000
20
18.000
30
0.000
11
0.000
21
18.000
31
0.000
0
LINE
8
BAT_RAIL
10
0.000
20
18.000
30
0.000
11
0.000
21
14.000
31
0.000
0
LINE
8
BAT_RAIL
10
0.000
20
21.000
30
0.000
11
32.000
21
21.000
31
0.000
0
LINE
8
BAT_RAIL
10
32.000
20
21.000
30
0.000
11
32.000
21
25.000
31
0.000
0
LINE
8
BAT_RAIL
10
32.000
20
25.000
30
0.000
11
0.000
21
25.000
31
0.000
0
LINE
8
BAT_RAIL
10
0.000
20
25.000
30
0.000
11
0.000
21
21.000
31
0.000
0
LINE
8
PHASE_RAIL
10
42.000
20
0.000
30
0.000
11
72.000
21
0.000
31
0.000
0
LINE
8
PHASE_RAIL
10
72.000
20
0.000
30
0.000
11
72.000
21
4.000
31
0.000
0
LINE
8
PHASE_RAIL
10
72.000
20
4.000
30
0.000
11
42.000
21
4.000
31
0.000
0
LINE
8
PHASE_RAIL
10
42.000
20
4.000
30
0.000
11
42.000
21
0.000
31
0.000
0
LINE
8
PHASE_RAIL
10
42.000
20
7.000
30
0.000
11
72.000
21
7.000
31
0.000
0
LINE
8
PHASE_RAIL
10
72.000
20
7.000
30
0.000
11
72.000
21
11.000
31
0.000
0
LINE
8
PHASE_RAIL
10
72.000
20
11.000
30
0.000
11
42.000
21
11.000
31
0.000
0
LINE
8
PHASE_RAIL
10
42.000
20
11.000
30
0.000
11
42.000
21
7.000
31
0.000
0
LINE
8
PHASE_RAIL
10
42.000
20
14.000
30
0.000
11
72.000
21
14.000
31
0.000
0
LINE
8
PHASE_RAIL
10
72.000
20
14.000
30
0.000
11
72.000
21
18.000
31
0.000
0
LINE
8
PHASE_RAIL
10
72.000
20
18.000
30
0.000
11
42.000
21
18.000
31
0.000
0
LINE
8
PHASE_RAIL
10
42.000
20
18.000
30
0.000
11
42.000
21
14.000
31
0.000
0
LINE
8
PHASE_RAIL
10
42.000
20
21.000
30
0.000
11
72.000
21
21.000
31
0.000
0
LINE
8
PHASE_RAIL
10
72.000
20
21.000
30
0.000
11
72.000
21
25.000
31
0.000
0
LINE
8
PHASE_RAIL
10
72.000
20
25.000
30
0.000
11
42.000
21
25.000
31
0.000
0
LINE
8
PHASE_RAIL
10
42.000
20
25.000
30
0.000
11
42.000
21
21.000
31
0.000
0
LINE
8
PHASE_RAIL
10
42.000
20
28.000
30
0.000
11
72.000
21
28.000
31
0.000
0
LINE
8
PHASE_RAIL
10
72.000
20
28.000
30
0.000
11
72.000
21
32.000
31
0.000
0
LINE
8
PHASE_RAIL
10
72.000
20
32.000
30
0.000
11
42.000
21
32.000
31
0.000
0
LINE
8
PHASE_RAIL
10
42.000
20
32.000
30
0.000
11
42.000
21
28.000
31
0.000
0
LINE
8
PHASE_RAIL
10
42.000
20
35.000
30
0.000
11
72.000
21
35.000
31
0.000
0
LINE
8
PHASE_RAIL
10
72.000
20
35.000
30
0.000
11
72.000
21
39.000
31
0.000
0
LINE
8
PHASE_RAIL
10
72.000
20
39.000
30
0.000
11
42.000
21
39.000
31
0.000
0
LINE
8
PHASE_RAIL
10
42.000
20
39.000
30
0.000
11
42.000
21
35.000
31
0.000
0
ENDSEC
0
EOF
